<svg xmlns="http://www.w3.org/2000/svg" xmlns:xlink="http://www.w3.org/1999/xlink" viewBox="0 0 32 32" fill="#FBFBFB">
  <path d="M16 4C14.145038 4 12.654113 5.2878226 12.201172 7L3 7L3 8L3 27L29 27L29 7L19.798828 7C19.345887 5.2878226 17.854962 4 16 4 z M 16 6C16.778885 6 17.284466 6.4267307 17.617188 7L14.382812 7C14.715535 6.4267307 15.221115 6 16 6 z M 5 9L27 9L27 25L5 25L5 9 z M 16 11C13.802666 11 12 12.802666 12 15C12 16.094596 12.449306 17.089782 13.169922 17.814453C11.314789 18.838984 10 20.745278 10 23L12 23C12 20.795455 13.795455 19 16 19C18.204545 19 20 20.795455 20 23L22 23C22 20.745278 20.685211 18.838984 18.830078 17.814453C19.550694 17.089782 20 16.094596 20 15C20 12.802666 18.197334 11 16 11 z M 16 13C17.116666 13 18 13.883334 18 15C18 16.116666 17.116666 17 16 17C14.883334 17 14 16.116666 14 15C14 13.883334 14.883334 13 16 13 z" fill="#FBFBFB" />
</svg>